# xmcd
#
# Track frame offsets: 
#        150
#        19778
#        33809
#        54235
#        67725
#        80567
#        95885
#        110571
#        121115
#        132965
#        147324
#        164355
#        178738
#        192859
#        206961
#        222636
#
# Disc length: 3150 seconds
#
# Revision: 0
# Processed by: cddbd v1.5.2PL0 Copyright (c) Steve Scherf et al.
# Submitted via: ExactAudioCopyFreeDBPlugin 1.0
#
DISCID=e90c4c10
DTITLE=Kris Kristofferson - 16 Biggest Hits
DYEAR=2007
DGENRE=Country/Folk
TTITLE0=Me And Bobby McGee
TTITLE1=Jody And The Kid
TTITLE2=Sunday Mornin' Comin' Down
TTITLE3=From The Bottle To The Bottom
TTITLE4=One More With Feeling
TTITLE5=For The Good Times
TTITLE6=The Taker
TTITLE7=Help Me Make It Through The Night
TTITLE8=Come Sundown
TTITLE9=The Pilgrim - Chapter 33
TTITLE10=Loving Her Was Easier (Than Anything I'll Ever Do Again)
TTITLE11=I'd Rather Be Sorry (feat. Rita Coolidge)
TTITLE12=Nobody Wins
TTITLE13=Stranger
TTITLE14=Why Me
TTITLE15=Highwayman (feat. Waylon Jennings, Willie Nelson and Johnny Cas
TTITLE15=h)
EXTD=
EXTT0=
EXTT1=
EXTT2=
EXTT3=
EXTT4=
EXTT5=
EXTT6=
EXTT7=
EXTT8=
EXTT9=
EXTT10=
EXTT11=
EXTT12=
EXTT13=
EXTT14=
EXTT15=
PLAYORDER=
